# xmcd
#
# Track frame offsets:
#  150
#  12828
#  27300
#  41855
#  54245
#  72419
#  83103
#  94751
#  108720
#  124852
#  143834
#  162587
#  180338
#  190449
#  208579
#  225511
#  239067
#  253911
#
# Disc length: 3544 seconds
#
# Revision: 0
# Processed by: cddbd v1.5.2PL0 Copyright (c) Steve Scherf et al.
# Submitted via: Collectorz.com_Music_Collector 6.9
#
DISCID=040dd612
DTITLE=Various Artist - The Best of my Love CD2
DYEAR=1900
DGENRE=
TTITLE0=Dinah Washington - Mad about the Boy
TTITLE1=Percy Sledge - Warm and Tender Love
TTITLE2=Arnold, P.P. - Angel of the Morning
TTITLE3=Charlie Rich - Behind Closed Doors
TTITLE4=Feliciano, Jose - Che sara 
TTITLE5=Dale and Grace - I'm leaving it up to you
TTITLE6=Pickett, Wilson - If you need me
TTITLE7=Casuals, The - Jesamine
TTITLE8=Biggs, Barry - Reflections of my life
TTITLE9=The Drifters - Feelings
TTITLE10=Jesse Green - Nice 'n Slow
TTITLE11=Coolidge, Rita - Bring it on Home to Me
TTITLE12=Legrand, Michel - Sea and Sky
TTITLE13=Wayne Wade - Lady
TTITLE14=Carnes, Kim - Bette Davis Eyes
TTITLE15=griffin, Jimmy - Lost without your love
TTITLE16=Minnie Ripperton - Les Fleurs
TTITLE17=Jones and Dionne Warwick, Tom - Endless love
EXTD=
EXTT0=
EXTT1=
EXTT2=
EXTT3=
EXTT4=
EXTT5=
EXTT6=
EXTT7=
EXTT8=
EXTT9=
EXTT10=
EXTT11=
EXTT12=
EXTT13=
EXTT14=
EXTT15=
EXTT16=
EXTT17=
PLAYORDER=
